<?xml version="1.0" encoding="UTF-8" standalone="no"?>
<!-- Created with Inkscape (http://www.inkscape.org/) -->

<svg
   width="45"
   height="45"
   viewBox="0 0 11.90625 11.90625"
   version="1.1"
   id="svg2584"
   inkscape:version="1.1.2 (b8e25be833, 2022-02-05)"
   sodipodi:docname="BitacoraCTCs_Icon.svg"
   inkscape:export-filename="C:\Users\gerav\Documents\Personal\Trabajo\UNID\Sistema de Mantenimiento\gestco-client\src\images\GenerarReportes_icon.png"
   inkscape:export-xdpi="96"
   inkscape:export-ydpi="96"
   xmlns:inkscape="http://www.inkscape.org/namespaces/inkscape"
   xmlns:sodipodi="http://sodipodi.sourceforge.net/DTD/sodipodi-0.dtd"
   xmlns="http://www.w3.org/2000/svg"
   xmlns:svg="http://www.w3.org/2000/svg">
  <sodipodi:namedview
     id="namedview2586"
     pagecolor="#505050"
     bordercolor="#ffffff"
     borderopacity="1"
     inkscape:pageshadow="0"
     inkscape:pageopacity="0"
     inkscape:pagecheckerboard="1"
     inkscape:document-units="mm"
     showgrid="false"
     units="px"
     showguides="true"
     inkscape:guide-bbox="true"
     inkscape:snap-bbox="true"
     inkscape:bbox-paths="true"
     inkscape:bbox-nodes="true"
     inkscape:snap-bbox-edge-midpoints="true"
     inkscape:snap-bbox-midpoints="true"
     inkscape:zoom="11.516947"
     inkscape:cx="32.734369"
     inkscape:cy="28.436355"
     inkscape:window-width="1920"
     inkscape:window-height="1001"
     inkscape:window-x="-9"
     inkscape:window-y="-9"
     inkscape:window-maximized="1"
     inkscape:current-layer="layer1">
    <sodipodi:guide
       position="7.2366182,5.9101949"
       orientation="0,-1"
       id="guide2658" />
    <sodipodi:guide
       position="5.9960551,8.4372679"
       orientation="1,0"
       id="guide2755" />
  </sodipodi:namedview>
  <defs
     id="defs2581" />
  <g
     inkscape:label="Capa 1"
     inkscape:groupmode="layer"
     id="layer1">
    <path
       d="M 8.3773055,7.1866801 H 3.6148054 c -0.1579563,0 -0.3093642,0.062707 -0.420886,0.1744268 -0.1117203,0.111522 -0.1744266,0.2629297 -0.1744266,0.4208857 0,0.157956 0.062706,0.3093645 0.1744266,0.4208853 0.1115218,0.111721 0.2629297,0.174427 0.420886,0.174427 h 4.7625001 c 0.157956,0 0.309364,-0.06271 0.420885,-0.174427 0.111721,-0.1115208 0.174427,-0.2629293 0.174427,-0.4208853 0,-0.157956 -0.06271,-0.3093637 -0.174427,-0.4208857 C 8.6866695,7.2493861 8.5352615,7.1866801 8.3773055,7.1866801 Z m 0,-2.3812499 H 4.8054302 c -0.157956,0 -0.3093638,0.062706 -0.4208858,0.1744265 -0.11172,0.1115219 -0.1744268,0.2629297 -0.1744268,0.420886 0,0.1579563 0.062707,0.3093641 0.1744268,0.4208859 0.111522,0.1117203 0.2629298,0.1744266 0.4208858,0.1744266 h 3.5718753 c 0.157956,0 0.309364,-0.062706 0.420885,-0.1744266 0.111721,-0.1115218 0.174427,-0.2629296 0.174427,-0.4208859 0,-0.1579563 -0.06271,-0.3093641 -0.174427,-0.420886 C 8.6866695,4.8681364 8.5352615,4.8054302 8.3773055,4.8054302 Z M 10.758555,1.2335551 H 8.9726175 V 0.63824265 c 0,-0.1579562 -0.06271,-0.309364 -0.174427,-0.4208859 -0.111521,-0.1117203 -0.262929,-0.1744265 -0.420885,-0.1744265 -0.157956,0 -0.309364,0.062706 -0.420886,0.1744265 -0.11172,0.1115219 -0.174427,0.2629297 -0.174427,0.4208859 V 1.2335551 H 6.5913675 V 0.63824265 c 0,-0.1579562 -0.06271,-0.309364 -0.174427,-0.4208859 -0.111521,-0.1117203 -0.262929,-0.1744265 -0.420885,-0.1744265 -0.157956,0 -0.309364,0.062706 -0.420886,0.1744265 -0.11172,0.1115219 -0.174427,0.2629297 -0.174427,0.4208859 V 1.2335551 H 4.2101176 V 0.63824265 c 0,-0.1579562 -0.062708,-0.309364 -0.1744263,-0.4208859 -0.1115219,-0.1117203 -0.2629297,-0.1744265 -0.4208859,-0.1744265 -0.1579563,0 -0.3093642,0.062706 -0.420886,0.1744265 -0.1117203,0.1115219 -0.1744266,0.2629297 -0.1744266,0.4208859 V 1.2335551 H 1.2335553 c -0.1579562,0 -0.30936405,0.062706 -0.42088605,0.1744267 -0.1117203,0.1115218 -0.1744265,0.2629296 -0.1744265,0.4208859 v 8.3343753 c 0,0.47367 0.1881188,0.927894 0.52308135,1.262856 0.3349624,0.334963 0.7891859,0.523081 1.2628562,0.523081 h 7.1437502 c 0.4736705,0 0.9278935,-0.188118 1.2628555,-0.523081 0.334963,-0.334962 0.523081,-0.789186 0.523081,-1.262856 V 1.8288677 c 0,-0.1579563 -0.06271,-0.3093641 -0.174426,-0.4208859 -0.111522,-0.1117204 -0.26293,-0.1744267 -0.420886,-0.1744267 z m -0.595313,8.9296879 c 0,0.157956 -0.06271,0.309364 -0.1744255,0.420886 -0.111522,0.11172 -0.26293,0.174426 -0.420886,0.174426 H 2.4241803 c -0.1579563,0 -0.309364,-0.06271 -0.4208859,-0.174426 C 1.891574,10.472607 1.8288678,10.321199 1.8288678,10.163243 V 2.4241802 h 1.190625 v 0.5953125 c 0,0.1579562 0.062706,0.309364 0.1744266,0.4208859 0.1115218,0.1117204 0.2629297,0.1744266 0.420886,0.1744266 0.1579562,0 0.309364,-0.062706 0.4208859,-0.1744266 C 4.1474116,3.3288567 4.2101176,3.1774489 4.2101176,3.0194927 V 2.4241802 h 1.1906249 v 0.5953125 c 0,0.1579562 0.06271,0.309364 0.174427,0.4208859 0.111522,0.1117204 0.26293,0.1744266 0.420886,0.1744266 0.157956,0 0.309364,-0.062706 0.420885,-0.1744266 0.111721,-0.1115219 0.174427,-0.2629297 0.174427,-0.4208859 V 2.4241802 h 1.190625 v 0.5953125 c 0,0.1579562 0.06271,0.309364 0.174427,0.4208859 0.111522,0.1117204 0.26293,0.1744266 0.420886,0.1744266 0.157956,0 0.309364,-0.062706 0.420885,-0.1744266 0.111721,-0.1115219 0.174427,-0.2629297 0.174427,-0.4208859 V 2.4241802 h 1.1906245 z"
       fill="#000000"
       id="path34"
       style="stroke-width:0.198437" />
  </g>
</svg>
