<?xml version="1.0" encoding="UTF-8" standalone="no"?>
<!-- Created with Inkscape (http://www.inkscape.org/) -->

<svg
   width="45"
   height="45"
   viewBox="0 0 11.90625 11.90625"
   version="1.1"
   id="svg2584"
   xmlns="http://www.w3.org/2000/svg"
   xmlns:svg="http://www.w3.org/2000/svg">
  <defs
     id="defs2581" />
  <g
     id="layer1">
    <path
       d="M 6.490071,6.7862519 C 6.4356256,6.7121862 6.3620502,6.6513641 6.2758858,6.6093446 6.1897208,6.567325 6.0935827,6.5452525 5.9959732,6.5452525 c -0.097609,0 -0.1937476,0.022073 -0.2799126,0.064092 -0.086164,0.04202 -0.1597394,0.1028416 -0.214185,0.1769073 L 3.1206583,10.056256 c -0.052156,0.0829 -0.079788,0.176908 -0.079788,0.272555 0,0.09565 0.027632,0.18966 0.079788,0.272555 0.046597,0.08502 0.1167392,0.157451 0.2033943,0.210098 0.086655,0.05265 0.1868807,0.08355 0.2907034,0.0896 h 4.7624347 c 0.1077464,-3.27e-4 0.2133677,-0.02731 0.3055818,-0.07815 0.092214,-0.05084 0.1677509,-0.123606 0.2182729,-0.210752 0.047904,-0.08518 0.070305,-0.180341 0.065073,-0.276152 -0.00525,-0.09565 -0.03793,-0.188352 -0.09483,-0.268794 z M 4.728029,9.8110061 5.9959732,8.0671126 7.2640808,9.8110061 Z m 5.435074,-8.7199576 h -8.33426 c -0.4736601,0 -0.9278637,0.1723293 -1.2628757,0.4788922 C 0.2311188,1.8765036 0.0429301,2.2924482 0.0429301,2.7260508 v 4.9050065 c 0,0.4336026 0.1881887,0.8495472 0.5230372,1.1561103 C 0.9009793,9.0937307 1.3551829,9.26606 1.828843,9.26606 h 0.5060332 c 0.1579412,0 0.3093425,-0.057389 0.4210131,-0.1595766 0.1115072,-0.1021873 0.1742912,-0.2408357 0.1742912,-0.3853701 0,-0.1445338 -0.062784,-0.2831822 -0.1742912,-0.3853701 C 2.6442187,8.2335559 2.4928174,8.1760034 2.3348762,8.1760034 H 1.828843 c -0.1579412,0 -0.3093423,-0.057389 -0.4210131,-0.159576 C 1.2963228,7.9142402 1.2335387,7.7755918 1.2335387,7.6310573 V 2.7260508 c 0,-0.1445342 0.062784,-0.2831824 0.1742912,-0.3853701 C 1.5195007,2.2384931 1.6709018,2.1811045 1.828843,2.1811045 h 8.33426 c 0.157942,0 0.309343,0.057389 0.421013,0.1595762 0.111671,0.1021877 0.174291,0.2408359 0.174291,0.3853701 v 4.9050065 c 0,0.1445345 -0.06262,0.2831829 -0.174291,0.3853701 -0.11167,0.1021879 -0.263071,0.159576 -0.421013,0.159576 H 9.6572341 c -0.157942,0 -0.309343,0.05755 -0.421014,0.1597398 -0.11167,0.1021879 -0.17429,0.2408363 -0.17429,0.3853701 0,0.1445344 0.06262,0.2831828 0.17429,0.3853701 0.111671,0.1021879 0.263072,0.1595766 0.421014,0.1595766 h 0.5058689 c 0.47366,0 0.928027,-0.1723293 1.262876,-0.4788924 C 11.760991,8.4806045 11.94918,8.0646599 11.94918,7.6310573 V 2.7260508 c 0,-0.4336026 -0.188189,-0.8495472 -0.523201,-1.1561101 C 11.09113,1.2633778 10.636763,1.0910485 10.163103,1.0910485 Z"
       fill="#000000"
       id="path58"
       style="stroke-width:0.1635" />
  </g>
</svg>
