<?xml version="1.0" encoding="UTF-8" standalone="no"?>
<!-- Created with Inkscape (http://www.inkscape.org/) -->

<svg
   width="45"
   height="45"
   viewBox="0 0 11.90625 11.90625"
   version="1.1"
   id="svg2584"
   inkscape:version="1.1.2 (b8e25be833, 2022-02-05)"
   sodipodi:docname="SolicitudesMantenimiento_icon.svg"
   xmlns:inkscape="http://www.inkscape.org/namespaces/inkscape"
   xmlns:sodipodi="http://sodipodi.sourceforge.net/DTD/sodipodi-0.dtd"
   xmlns="http://www.w3.org/2000/svg"
   xmlns:svg="http://www.w3.org/2000/svg">
  <sodipodi:namedview
     id="namedview2586"
     pagecolor="#505050"
     bordercolor="#ffffff"
     borderopacity="1"
     inkscape:pageshadow="0"
     inkscape:pageopacity="0"
     inkscape:pagecheckerboard="1"
     inkscape:document-units="mm"
     showgrid="false"
     units="px"
     showguides="true"
     inkscape:guide-bbox="true"
     inkscape:snap-bbox="true"
     inkscape:bbox-paths="true"
     inkscape:bbox-nodes="true"
     inkscape:snap-bbox-edge-midpoints="true"
     inkscape:snap-bbox-midpoints="true"
     inkscape:zoom="11.516947"
     inkscape:cx="32.734369"
     inkscape:cy="28.436355"
     inkscape:window-width="1920"
     inkscape:window-height="1001"
     inkscape:window-x="-9"
     inkscape:window-y="-9"
     inkscape:window-maximized="1"
     inkscape:current-layer="layer1">
    <sodipodi:guide
       position="7.2366182,5.9101949"
       orientation="0,-1"
       id="guide2658" />
  </sodipodi:namedview>
  <defs
     id="defs2581" />
  <g
     inkscape:label="Capa 1"
     inkscape:groupmode="layer"
     id="layer1">
    <path
       d="m 5.1554147,2.7270936 h 4.3673329 c 0.1578705,0 0.3092013,0.057407 0.4207462,0.1596875 0.1115452,0.1020982 0.1744032,0.240712 0.1744032,0.3851391 v 3.2684144 c 5.55e-4,0.096103 -0.02816,0.1905712 -0.08339,0.2723224 -0.041781,0.060496 -0.070124,0.1278954 -0.083568,0.198383 -0.013444,0.070488 -0.011446,0.1426107 0.00563,0.2125533 0.017253,0.069761 0.049231,0.1357072 0.094287,0.1942047 0.04487,0.058498 0.102098,0.1084567 0.168043,0.1466072 0.0932,0.057407 0.203107,0.087746 0.315379,0.087201 0.09956,-1.818e-4 0.197474,-0.023254 0.284858,-0.067036 0.08738,-0.043782 0.161323,-0.106821 0.215096,-0.1834856 0.178766,-0.2572438 0.273779,-0.5559084 0.273598,-0.8607497 V 3.2719202 c 0,-0.4334632 -0.188028,-0.8491228 -0.522845,-1.1555991 C 10.45035,1.8098448 9.9961766,1.6376222 9.522746,1.6376222 H 5.1554147 c -0.1578708,0 -0.3092013,0.057407 -0.4207465,0.1596873 -0.1117264,0.1020983 -0.1744025,0.240712 -0.1744025,0.3851393 0,0.1444271 0.062676,0.2830409 0.1744025,0.3851391 0.1115452,0.1020982 0.2628757,0.1595057 0.4207465,0.1595057 z M 11.730394,10.511446 2.2992081,1.8828759 1.0198921,0.70620298 c -0.055409,-0.050867 -0.1213551,-0.091198 -0.1938413,-0.1186301 -0.072486,-0.027432 -0.1500589,-0.041603 -0.2285401,-0.041603 -0.078481,0 -0.1562357,0.014171 -0.2287217,0.041603 -0.072486,0.027432 -0.1382505,0.067763 -0.1938414,0.1186301 C 0.0628576,0.80866458 0,0.94782342 0,1.0929773 0,1.2379495 0.062858,1.3771082 0.1749476,1.4797514 l 0.833136,0.7571982 C 0.7444813,2.527984 0.5993274,2.8938662 0.5975107,3.2719202 v 3.2684144 c 0,0.4334635 0.1880278,0.8491228 0.5228446,1.1555992 0.334635,0.3064764 0.7888086,0.478699 1.2622391,0.478699 H 5.3576127 V 9.2641042 H 2.9775618 c -0.1578708,0 -0.3092014,0.057226 -0.4207464,0.1595059 -0.1115451,0.1020982 -0.174221,0.2407121 -0.174221,0.3851394 0,0.1444268 0.062676,0.2830405 0.174221,0.3851385 0.111545,0.10228 0.2628756,0.159687 0.4207464,0.159687 h 5.9502186 c 0.1211733,-0.0013 0.2392585,-0.03634 0.3380864,-0.100463 0.09901,-0.06431 0.1740395,-0.154782 0.215278,-0.2590597 L 10.88545,11.284995 c 0.05523,0.05105 0.120991,0.09156 0.193659,0.119175 0.07249,0.02779 0.150241,0.04197 0.228722,0.04197 0.07866,0 0.156418,-0.01417 0.228904,-0.04197 0.07249,-0.02762 0.13825,-0.06813 0.193659,-0.119175 0.05577,-0.05069 0.09992,-0.110818 0.130257,-0.17731 0.03016,-0.06631 0.0456,-0.137523 0.0456,-0.209464 0,-0.07194 -0.01544,-0.143156 -0.0456,-0.209465 -0.03034,-0.06631 -0.07448,-0.126623 -0.130257,-0.17731 z M 2.3825944,7.0849797 c -0.1578707,0 -0.3092013,-0.057226 -0.4207464,-0.1595059 C 1.8501213,6.8233756 1.7874454,6.684762 1.7874454,6.5403346 V 3.2719202 c 0.00145,-0.087565 0.025979,-0.1734943 0.071396,-0.2505221 L 6.3037471,7.0849797 Z M 6.5477292,9.2641042 V 8.1746328 H 7.4936818 L 8.683798,9.2641042 Z"
       fill="#000000"
       id="path46"
       style="stroke-width:0.181669" />
  </g>
</svg>
